<svg xmlns="http://www.w3.org/2000/svg" xmlns:xlink="http://www.w3.org/1999/xlink" xmlns:sketch="http://www.bohemiancoding.com/sketch/ns" viewBox="0 0 16 16" version="1.1" x="0px" y="0px"><title>search</title><description>Created with Sketch (http://www.bohemiancoding.com/sketch)</description><g stroke="none" stroke-width="1" fill="none" fill-rule="evenodd" sketch:type="MSPage"><path d="M8.72540529,11.3467256 C7.90760672,11.7644185 6.98131488,12 6,12 C2.68629134,12 0,9.31370866 0,6 C0,2.68629134 2.68629134,0 6,0 C9.31370866,0 12,2.68629134 12,6 C12,7.24246438 11.6223475,8.39672324 10.9755697,9.35424938 L15.1819805,13.5606602 C15.1819805,13.5606602 15.8890873,14.267767 15.1819805,14.9748737 L14.4748737,15.6819805 C13.767767,16.3890873 13.0606602,15.6819805 13.0606602,15.6819805 L8.72540529,11.3467256 Z M2,6 C2,3.79086084 3.79086084,2 6,2 C8.20913916,2 10,3.79086084 10,6 C10,8.20913916 8.20913916,10 6,10 C3.79086084,10 2,8.20913916 2,6 Z" fill="#000000" sketch:type="MSShapeGroup"></path></g></svg>